{
  "accessors": [
    {
      "bufferView": 2,
      "componentType": 5126,
      "count": 1529,
      "max": [
        0.6643469929695129,
        0.30630600452423096,
        1.8914899826049805
      ],
      "min": [
        -0.6643469929695129,
        -0.182110995054245,
        -0.0004769999941345304
      ],
      "type": "VEC3"
    },
    {
      "bufferView": 2,
      "byteOffset": 18348,
      "componentType": 5126,
      "count": 1529,
      "max": [
        0.9983477592468262,
        0.999990701675415,
        0.9999939203262329
      ],
      "min": [
        -0.9991968870162964,
        -0.9999991655349731,
        -1.0
      ],
      "type": "VEC3"
    },
    {
      "bufferView": 1,
      "componentType": 5126,
      "count": 1529,
      "max": [
        0.9980000257492065,
        0.9958000183105469
      ],
      "min": [
        0.0031999999191612005,
        0.005799999926239252
      ],
      "type": "VEC2"
    },
    {
      "bufferView": 0,
      "componentType": 5125,
      "count": 5514,
      "type": "SCALAR"
    },
    {
      "bufferView": 2,
      "byteOffset": 36696,
      "componentType": 5126,
      "count": 70,
      "max": [
        0.38312700390815735,
        0.34464800357818604,
        1.9743000268936157
      ],
      "min": [
        -0.38678500056266785,
        -0.2742680013179779,
        1.5045599937438965
      ],
      "type": "VEC3"
    },
    {
      "bufferView": 2,
      "byteOffset": 37536,
      "componentType": 5126,
      "count": 70,
      "max": [
        0.9614848494529724,
        0.9706127643585205,
        0.9983346462249756
      ],
      "min": [
        -0.9671609997749329,
        -0.5998989939689636,
        -0.4095838665962219
      ],
      "type": "VEC3"
    },
    {
      "bufferView": 1,
      "byteOffset": 12232,
      "componentType": 5126,
      "count": 70,
      "max": [
        0.5839999914169312,
        0.5048999786376953
      ],
      "min": [
        0.007300000172108412,
        0.012000000104308128
      ],
      "type": "VEC2"
    },
    {
      "bufferView": 0,
      "byteOffset": 22056,
      "componentType": 5125,
      "count": 168,
      "type": "SCALAR"
    },
    {
      "bufferView": 2,
      "byteOffset": 38376,
      "componentType": 5126,
      "count": 460,
      "max": [
        0.8327800035476685,
        0.0697690024971962,
        1.8199900388717651
      ],
      "min": [
        -0.8327800035476685,
        -0.15960100293159485,
        1.2829899787902832
      ],
      "type": "VEC3"
    },
    {
      "bufferView": 2,
      "byteOffset": 43896,
      "componentType": 5126,
      "count": 460,
      "max": [
        0.9980068206787109,
        0.9996824860572815,
        0.9967271685600281
      ],
      "min": [
        -0.9980068206787109,
        -0.9992194175720215,
        -0.9994619488716125
      ],
      "type": "VEC3"
    },
    {
      "bufferView": 1,
      "byteOffset": 12792,
      "componentType": 5126,
      "count": 460,
      "max": [
        0.9904000163078308,
        -0.006399999838322401
      ],
      "min": [
        0.006800000090152025,
        -0.9883000254631042
      ],
      "type": "VEC2"
    },
    {
      "bufferView": 0,
      "byteOffset": 22728,
      "componentType": 5125,
      "count": 2004,
      "type": "SCALAR"
    }
  ],
  "asset": {
    "extras": {
      "author": "rogerreyes582 (https://sketchfab.com/rogerreyes582)",
      "license": "CC-BY-4.0 (http://creativecommons.org/licenses/by/4.0/)",
      "source": "https://sketchfab.com/3d-models/wii-toy-story-3-jessie-6a9416f4c6fe422e851782455a99adda",
      "title": "Wii - Toy Story 3 - Jessie"
    },
    "generator": "Sketchfab-12.67.0",
    "version": "2.0"
  },
  "bufferViews": [
    {
      "buffer": 0,
      "byteLength": 30744,
      "name": "floatBufferViews",
      "target": 34963
    },
    {
      "buffer": 0,
      "byteLength": 16472,
      "byteOffset": 30744,
      "byteStride": 8,
      "name": "floatBufferViews",
      "target": 34962
    },
    {
      "buffer": 0,
      "byteLength": 49416,
      "byteOffset": 47216,
      "byteStride": 12,
      "name": "floatBufferViews",
      "target": 34962
    }
  ],
  "buffers": [
    {
      "byteLength": 96632,
      "uri": "scene.bin"
    }
  ],
  "images": [
    {
      "uri": "textures/Jessie_baseColor.png"
    },
    {
      "uri": "textures/Jessie_face_baseColor.png"
    }
  ],
  "materials": [
    {
      "doubleSided": true,
      "name": "Jessie",
      "pbrMetallicRoughness": {
        "baseColorTexture": {
          "index": 0
        },
        "metallicFactor": 0.0,
        "roughnessFactor": 0.8434915419926713
      }
    },
    {
      "doubleSided": true,
      "name": "Jessies_hat",
      "pbrMetallicRoughness": {
        "baseColorTexture": {
          "index": 0
        },
        "metallicFactor": 0.0,
        "roughnessFactor": 0.8434915419926713
      }
    },
    {
      "doubleSided": true,
      "name": "Jessie_face",
      "pbrMetallicRoughness": {
        "baseColorTexture": {
          "index": 1
        },
        "metallicFactor": 0.0,
        "roughnessFactor": 0.8434915419926713
      }
    }
  ],
  "meshes": [
    {
      "name": "Object_0",
      "primitives": [
        {
          "attributes": {
            "NORMAL": 1,
            "POSITION": 0,
            "TEXCOORD_0": 2
          },
          "indices": 3,
          "material": 0,
          "mode": 4
        }
      ]
    },
    {
      "name": "Object_1",
      "primitives": [
        {
          "attributes": {
            "NORMAL": 5,
            "POSITION": 4,
            "TEXCOORD_0": 6
          },
          "indices": 7,
          "material": 1,
          "mode": 4
        }
      ]
    },
    {
      "name": "Object_2",
      "primitives": [
        {
          "attributes": {
            "NORMAL": 9,
            "POSITION": 8,
            "TEXCOORD_0": 10
          },
          "indices": 11,
          "material": 2,
          "mode": 4
        }
      ]
    }
  ],
  "nodes": [
    {
      "children": [
        1
      ],
      "matrix": [
        1.0,
        0.0,
        0.0,
        0.0,
        0.0,
        2.220446049250313e-16,
        -1.0,
        0.0,
        0.0,
        1.0,
        2.220446049250313e-16,
        0.0,
        0.0,
        0.0,
        0.0,
        1.0
      ],
      "name": "Sketchfab_model"
    },
    {
      "children": [
        2,
        3,
        4
      ],
      "name": "Jessie.obj.cleaner.materialmerger.gles"
    },
    {
      "mesh": 0,
      "name": "Object_2"
    },
    {
      "mesh": 1,
      "name": "Object_3"
    },
    {
      "mesh": 2,
      "name": "Object_4"
    }
  ],
  "samplers": [
    {
      "magFilter": 9729,
      "minFilter": 9987,
      "wrapS": 10497,
      "wrapT": 10497
    }
  ],
  "scene": 0,
  "scenes": [
    {
      "name": "Sketchfab_Scene",
      "nodes": [
        0
      ]
    }
  ],
  "textures": [
    {
      "sampler": 0,
      "source": 0
    },
    {
      "sampler": 0,
      "source": 1
    }
  ]
}
