{
  "accessors": [
    {
      "bufferView": 2,
      "componentType": 5126,
      "count": 5073,
      "max": [
        0.8776012659072876,
        0.5369861721992493,
        0.8821412324905396
      ],
      "min": [
        -0.8776007890701294,
        -0.7498950958251953,
        -0.877600908279419
      ],
      "type": "VEC3"
    },
    {
      "bufferView": 2,
      "byteOffset": 60876,
      "componentType": 5126,
      "count": 5073,
      "max": [
        0.9999783039093018,
        1.0,
        0.9999783039093018
      ],
      "min": [
        -0.9999783039093018,
        -1.0,
        -0.9999783039093018
      ],
      "type": "VEC3"
    },
    {
      "bufferView": 1,
      "componentType": 5126,
      "count": 5073,
      "max": [
        1.0000003576278687,
        0.6875001788139343
      ],
      "min": [
        0.0,
        0.0
      ],
      "type": "VEC2"
    },
    {
      "bufferView": 0,
      "componentType": 5125,
      "count": 20436,
      "type": "SCALAR"
    },
    {
      "bufferView": 2,
      "byteOffset": 121752,
      "componentType": 5126,
      "count": 208,
      "max": [
        0.46888330578804016,
        -0.2278258502483368,
        0.8775048851966858
      ],
      "min": [
        -0.4688981771469116,
        -0.4509631097316742,
        0.733332097530365
      ],
      "type": "VEC3"
    },
    {
      "bufferView": 2,
      "byteOffset": 124248,
      "componentType": 5126,
      "count": 208,
      "max": [
        0.538909375667572,
        0.5362241864204407,
        0.994279682636261
      ],
      "min": [
        -0.540312647819519,
        -0.8941132426261902,
        0.33558622002601624
      ],
      "type": "VEC3"
    },
    {
      "bufferView": 1,
      "byteOffset": 40584,
      "componentType": 5126,
      "count": 208,
      "max": [
        0.3361836373806,
        0.40305760502815247
      ],
      "min": [
        0.15885420143604279,
        0.33478692173957825
      ],
      "type": "VEC2"
    },
    {
      "bufferView": 0,
      "byteOffset": 81744,
      "componentType": 5125,
      "count": 540,
      "type": "SCALAR"
    },
    {
      "bufferView": 2,
      "byteOffset": 126744,
      "componentType": 5126,
      "count": 442,
      "max": [
        2.0087428092956543,
        0.2200758308172226,
        1.2228440046310425
      ],
      "min": [
        -2.0087430477142334,
        -0.2200758159160614,
        -2.0087406635284424
      ],
      "type": "VEC3"
    },
    {
      "bufferView": 2,
      "byteOffset": 132048,
      "componentType": 5126,
      "count": 442,
      "max": [
        1.0,
        0.9952355623245239,
        1.0
      ],
      "min": [
        -1.0,
        -0.9952355623245239,
        -1.0
      ],
      "type": "VEC3"
    },
    {
      "bufferView": 1,
      "byteOffset": 42248,
      "componentType": 5126,
      "count": 442,
      "max": [
        1.0,
        1.0
      ],
      "min": [
        8.881784197001252e-16,
        2.220446049250313e-16
      ],
      "type": "VEC2"
    },
    {
      "bufferView": 0,
      "byteOffset": 83904,
      "componentType": 5125,
      "count": 2304,
      "type": "SCALAR"
    },
    {
      "bufferView": 2,
      "byteOffset": 137352,
      "componentType": 5126,
      "count": 297,
      "max": [
        1.000000238418579,
        0.9238795042037964,
        1.0000003576278687
      ],
      "min": [
        -0.9999998211860657,
        -0.38268327713012695,
        -1.0
      ],
      "type": "VEC3"
    },
    {
      "bufferView": 2,
      "byteOffset": 140916,
      "componentType": 5126,
      "count": 297,
      "max": [
        1.0,
        0.9217141270637512,
        1.0
      ],
      "min": [
        -1.0,
        -0.2902701497077942,
        -1.0
      ],
      "type": "VEC3"
    },
    {
      "bufferView": 1,
      "byteOffset": 45784,
      "componentType": 5126,
      "count": 297,
      "max": [
        1.0000001192092896,
        0.8750001192092896
      ],
      "min": [
        0.0,
        0.375
      ],
      "type": "VEC2"
    },
    {
      "bufferView": 0,
      "byteOffset": 93120,
      "componentType": 5125,
      "count": 1536,
      "type": "SCALAR"
    },
    {
      "bufferView": 2,
      "byteOffset": 144480,
      "componentType": 5126,
      "count": 98,
      "max": [
        0.3826836943626404,
        1.0,
        0.3826838433742523
      ],
      "min": [
        -0.3826833665370941,
        0.9238795042037964,
        -0.3826834559440613
      ],
      "type": "VEC3"
    },
    {
      "bufferView": 2,
      "byteOffset": 145656,
      "componentType": 5126,
      "count": 98,
      "max": [
        0.38787010312080383,
        1.0,
        0.38787010312080383
      ],
      "min": [
        -0.38787010312080383,
        0.9217081665992737,
        -0.38787010312080383
      ],
      "type": "VEC3"
    },
    {
      "bufferView": 1,
      "byteOffset": 48160,
      "componentType": 5126,
      "count": 98,
      "max": [
        1.000000238418579,
        1.0
      ],
      "min": [
        8.940696716308594e-08,
        0.8749998807907104
      ],
      "type": "VEC2"
    },
    {
      "bufferView": 0,
      "byteOffset": 99264,
      "componentType": 5125,
      "count": 288,
      "type": "SCALAR"
    },
    {
      "bufferView": 2,
      "byteOffset": 146832,
      "componentType": 5126,
      "count": 258,
      "max": [
        1.000000238418579,
        0.9238795042037964,
        1.0000003576278687
      ],
      "min": [
        -0.9807848334312439,
        -0.38268327713012695,
        -1.0
      ],
      "type": "VEC3"
    },
    {
      "bufferView": 2,
      "byteOffset": 149928,
      "componentType": 5126,
      "count": 258,
      "max": [
        1.0,
        0.9217141270637512,
        1.0
      ],
      "min": [
        -0.956946611404419,
        -0.2902701497077942,
        -1.0
      ],
      "type": "VEC3"
    },
    {
      "bufferView": 1,
      "byteOffset": 48944,
      "componentType": 5126,
      "count": 258,
      "max": [
        1.0000001192092896,
        0.8750001192092896
      ],
      "min": [
        0.0,
        0.3750000596046448
      ],
      "type": "VEC2"
    },
    {
      "bufferView": 0,
      "byteOffset": 100416,
      "componentType": 5125,
      "count": 1302,
      "type": "SCALAR"
    },
    {
      "bufferView": 2,
      "byteOffset": 153024,
      "componentType": 5126,
      "count": 98,
      "max": [
        0.3826836943626404,
        1.0,
        0.3826838433742523
      ],
      "min": [
        -0.3826833665370941,
        0.9238795042037964,
        -0.3826834559440613
      ],
      "type": "VEC3"
    },
    {
      "bufferView": 2,
      "byteOffset": 154200,
      "componentType": 5126,
      "count": 98,
      "max": [
        0.38787010312080383,
        1.0,
        0.38787010312080383
      ],
      "min": [
        -0.38787010312080383,
        0.9217081665992737,
        -0.38787010312080383
      ],
      "type": "VEC3"
    },
    {
      "bufferView": 1,
      "byteOffset": 51008,
      "componentType": 5126,
      "count": 98,
      "max": [
        1.000000238418579,
        1.0
      ],
      "min": [
        8.940696716308594e-08,
        0.8749998807907104
      ],
      "type": "VEC2"
    },
    {
      "bufferView": 0,
      "byteOffset": 105624,
      "componentType": 5125,
      "count": 288,
      "type": "SCALAR"
    },
    {
      "bufferView": 2,
      "byteOffset": 155376,
      "componentType": 5126,
      "count": 261,
      "max": [
        0.9807852506637573,
        0.9238795042037964,
        1.0000003576278687
      ],
      "min": [
        -0.9999998211860657,
        -0.38268327713012695,
        -1.0
      ],
      "type": "VEC3"
    },
    {
      "bufferView": 2,
      "byteOffset": 158508,
      "componentType": 5126,
      "count": 261,
      "max": [
        0.956946611404419,
        0.9217141270637512,
        1.0
      ],
      "min": [
        -1.0,
        -0.2902701497077942,
        -1.0
      ],
      "type": "VEC3"
    },
    {
      "bufferView": 1,
      "byteOffset": 51792,
      "componentType": 5126,
      "count": 261,
      "max": [
        1.0000001192092896,
        0.8750001192092896
      ],
      "min": [
        0.0,
        0.375
      ],
      "type": "VEC2"
    },
    {
      "bufferView": 0,
      "byteOffset": 106776,
      "componentType": 5125,
      "count": 1302,
      "type": "SCALAR"
    },
    {
      "bufferView": 2,
      "byteOffset": 161640,
      "componentType": 5126,
      "count": 98,
      "max": [
        0.3826836943626404,
        1.0,
        0.3826838433742523
      ],
      "min": [
        -0.3826833665370941,
        0.9238795042037964,
        -0.3826834559440613
      ],
      "type": "VEC3"
    },
    {
      "bufferView": 2,
      "byteOffset": 162816,
      "componentType": 5126,
      "count": 98,
      "max": [
        0.38787010312080383,
        1.0,
        0.38787010312080383
      ],
      "min": [
        -0.38787010312080383,
        0.9217081665992737,
        -0.38787010312080383
      ],
      "type": "VEC3"
    },
    {
      "bufferView": 1,
      "byteOffset": 53880,
      "componentType": 5126,
      "count": 98,
      "max": [
        1.000000238418579,
        1.0
      ],
      "min": [
        8.940696716308594e-08,
        0.8749998807907104
      ],
      "type": "VEC2"
    },
    {
      "bufferView": 0,
      "byteOffset": 111984,
      "componentType": 5125,
      "count": 288,
      "type": "SCALAR"
    },
    {
      "bufferView": 2,
      "byteOffset": 163992,
      "componentType": 5126,
      "count": 685,
      "max": [
        1.25,
        0.25,
        1.25
      ],
      "min": [
        -1.25,
        -0.25,
        -1.25
      ],
      "type": "VEC3"
    },
    {
      "bufferView": 2,
      "byteOffset": 172212,
      "componentType": 5126,
      "count": 685,
      "max": [
        1.0,
        0.9999423027038574,
        1.0
      ],
      "min": [
        -1.0,
        -1.0,
        -1.0
      ],
      "type": "VEC3"
    },
    {
      "bufferView": 1,
      "byteOffset": 54664,
      "componentType": 5126,
      "count": 685,
      "max": [
        1.0,
        1.0
      ],
      "min": [
        8.881784197001252e-16,
        2.220446049250313e-16
      ],
      "type": "VEC2"
    },
    {
      "bufferView": 0,
      "byteOffset": 113136,
      "componentType": 5125,
      "count": 3450,
      "type": "SCALAR"
    },
    {
      "bufferView": 2,
      "byteOffset": 180432,
      "componentType": 5126,
      "count": 3140,
      "max": [
        5.4990715980529785,
        2.0639700889587402,
        0.900668203830719
      ],
      "min": [
        -5.4990715980529785,
        -1.3108049631118774,
        -1.3223577737808228
      ],
      "type": "VEC3"
    },
    {
      "bufferView": 2,
      "byteOffset": 218112,
      "componentType": 5126,
      "count": 3140,
      "max": [
        1.0,
        0.9969059824943542,
        0.9869301319122314
      ],
      "min": [
        -1.0,
        -0.9996985197067261,
        -0.9989898800849915
      ],
      "type": "VEC3"
    },
    {
      "bufferView": 1,
      "byteOffset": 60144,
      "componentType": 5126,
      "count": 3140,
      "max": [
        0.0,
        0.0
      ],
      "min": [
        0.0,
        0.0
      ],
      "type": "VEC2"
    },
    {
      "bufferView": 0,
      "byteOffset": 126936,
      "componentType": 5125,
      "count": 18816,
      "type": "SCALAR"
    }
  ],
  "asset": {
    "extras": {
      "author": "Platrium (https://sketchfab.com/Platrium)",
      "license": "CC-BY-4.0 (http://creativecommons.org/licenses/by/4.0/)",
      "source": "https://sketchfab.com/3d-models/3december-day-21-toy-story-alien-cup-7a387a90a11d441ea3e4cc9f5f82feb1",
      "title": "3December Day 21: Toy Story Alien Cup"
    },
    "generator": "Sketchfab-12.68.0",
    "version": "2.0"
  },
  "bufferViews": [
    {
      "buffer": 0,
      "byteLength": 202200,
      "name": "floatBufferViews",
      "target": 34963
    },
    {
      "buffer": 0,
      "byteLength": 85264,
      "byteOffset": 202200,
      "byteStride": 8,
      "name": "floatBufferViews",
      "target": 34962
    },
    {
      "buffer": 0,
      "byteLength": 255792,
      "byteOffset": 287464,
      "byteStride": 12,
      "name": "floatBufferViews",
      "target": 34962
    }
  ],
  "buffers": [
    {
      "byteLength": 543256,
      "uri": "scene.bin"
    }
  ],
  "materials": [
    {
      "doubleSided": true,
      "name": "Alien",
      "pbrMetallicRoughness": {
        "baseColorFactor": [
          0.723055,
          0.791298,
          0.0481719,
          1.0
        ],
        "metallicFactor": 0.0,
        "roughnessFactor": 0.0
      }
    },
    {
      "doubleSided": true,
      "name": "Black",
      "pbrMetallicRoughness": {
        "baseColorFactor": [
          0.00518152,
          0.00518152,
          0.00518152,
          1.0
        ],
        "metallicFactor": 0.0,
        "roughnessFactor": 0.0
      }
    },
    {
      "doubleSided": true,
      "name": "White",
      "pbrMetallicRoughness": {
        "metallicFactor": 0.0,
        "roughnessFactor": 0.0
      }
    },
    {
      "doubleSided": true,
      "name": "Purple",
      "pbrMetallicRoughness": {
        "baseColorFactor": [
          0.258183,
          0.0761854,
          0.215861,
          1.0
        ],
        "metallicFactor": 0.0,
        "roughnessFactor": 0.0
      }
    }
  ],
  "meshes": [
    {
      "name": "Object_0",
      "primitives": [
        {
          "attributes": {
            "NORMAL": 1,
            "POSITION": 0,
            "TEXCOORD_0": 2
          },
          "indices": 3,
          "material": 0,
          "mode": 4
        }
      ]
    },
    {
      "name": "Object_1",
      "primitives": [
        {
          "attributes": {
            "NORMAL": 5,
            "POSITION": 4,
            "TEXCOORD_0": 6
          },
          "indices": 7,
          "material": 1,
          "mode": 4
        }
      ]
    },
    {
      "name": "Object_2",
      "primitives": [
        {
          "attributes": {
            "NORMAL": 9,
            "POSITION": 8,
            "TEXCOORD_0": 10
          },
          "indices": 11,
          "material": 0,
          "mode": 4
        }
      ]
    },
    {
      "name": "Object_3",
      "primitives": [
        {
          "attributes": {
            "NORMAL": 13,
            "POSITION": 12,
            "TEXCOORD_0": 14
          },
          "indices": 15,
          "material": 2,
          "mode": 4
        }
      ]
    },
    {
      "name": "Object_4",
      "primitives": [
        {
          "attributes": {
            "NORMAL": 17,
            "POSITION": 16,
            "TEXCOORD_0": 18
          },
          "indices": 19,
          "material": 1,
          "mode": 4
        }
      ]
    },
    {
      "name": "Object_5",
      "primitives": [
        {
          "attributes": {
            "NORMAL": 21,
            "POSITION": 20,
            "TEXCOORD_0": 22
          },
          "indices": 23,
          "material": 2,
          "mode": 4
        }
      ]
    },
    {
      "name": "Object_6",
      "primitives": [
        {
          "attributes": {
            "NORMAL": 25,
            "POSITION": 24,
            "TEXCOORD_0": 26
          },
          "indices": 27,
          "material": 1,
          "mode": 4
        }
      ]
    },
    {
      "name": "Object_7",
      "primitives": [
        {
          "attributes": {
            "NORMAL": 29,
            "POSITION": 28,
            "TEXCOORD_0": 30
          },
          "indices": 31,
          "material": 2,
          "mode": 4
        }
      ]
    },
    {
      "name": "Object_8",
      "primitives": [
        {
          "attributes": {
            "NORMAL": 33,
            "POSITION": 32,
            "TEXCOORD_0": 34
          },
          "indices": 35,
          "material": 1,
          "mode": 4
        }
      ]
    },
    {
      "name": "Object_9",
      "primitives": [
        {
          "attributes": {
            "NORMAL": 37,
            "POSITION": 36,
            "TEXCOORD_0": 38
          },
          "indices": 39,
          "material": 3,
          "mode": 4
        }
      ]
    },
    {
      "name": "Object_10",
      "primitives": [
        {
          "attributes": {
            "NORMAL": 41,
            "POSITION": 40,
            "TEXCOORD_0": 42
          },
          "indices": 43,
          "material": 0,
          "mode": 4
        }
      ]
    }
  ],
  "nodes": [
    {
      "children": [
        1
      ],
      "matrix": [
        1.0,
        0.0,
        0.0,
        0.0,
        0.0,
        2.220446049250313e-16,
        -1.0,
        0.0,
        0.0,
        1.0,
        2.220446049250313e-16,
        0.0,
        0.0,
        0.0,
        0.0,
        1.0
      ],
      "name": "Sketchfab_model"
    },
    {
      "children": [
        2
      ],
      "name": "root"
    },
    {
      "children": [
        3,
        6,
        8,
        11,
        14,
        17,
        19
      ],
      "matrix": [
        1.0,
        0.0,
        0.0,
        0.0,
        0.0,
        2.220446049250313e-16,
        1.0,
        0.0,
        0.0,
        -1.0,
        2.220446049250313e-16,
        0.0,
        0.0,
        0.0,
        0.0,
        1.0
      ],
      "name": "GLTF_SceneRootNode"
    },
    {
      "children": [
        4,
        5
      ],
      "matrix": [
        1.600000023841858,
        0.0,
        0.0,
        0.0,
        0.0,
        1.28000009059906,
        0.0,
        0.0,
        0.0,
        0.0,
        1.600000023841858,
        0.0,
        0.0,
        0.0,
        0.0,
        1.0
      ],
      "name": "Sphere_2"
    },
    {
      "mesh": 0,
      "name": "Object_4"
    },
    {
      "mesh": 1,
      "name": "Object_5"
    },
    {
      "children": [
        7
      ],
      "matrix": [
        2.5288109445461178e-08,
        -0.3000000119209279,
        -0.0,
        0.0,
        0.3000000119209279,
        2.5288109445461178e-08,
        0.0,
        0.0,
        0.0,
        -0.0,
        0.30000001192092896,
        0.0,
        0.0,
        0.0,
        -1.5,
        1.0
      ],
      "name": "Torus_3"
    },
    {
      "mesh": 2,
      "name": "Object_7"
    },
    {
      "children": [
        9,
        10
      ],
      "matrix": [
        0.30000001192092896,
        0.0,
        0.0,
        0.0,
        0.0,
        0.10260604477632873,
        0.28190779827439244,
        0.0,
        0.0,
        -0.28190779827439244,
        0.10260604477632873,
        0.0,
        0.0,
        0.20000000298023224,
        1.2999999523162842,
        1.0
      ],
      "name": "Sphere.001_4"
    },
    {
      "mesh": 3,
      "name": "Object_9"
    },
    {
      "mesh": 4,
      "name": "Object_10"
    },
    {
      "children": [
        12,
        13
      ],
      "matrix": [
        0.298858421805328,
        -8.065240213091162e-10,
        -0.026146718122666047,
        0.0,
        0.024569878439050948,
        0.10260604434447566,
        0.2808350545961584,
        0.0,
        0.008942703286837434,
        -0.28190779843157404,
        0.10221559760596276,
        0.0,
        0.7456493377685547,
        0.10000000149011612,
        1.054897665977478,
        1.0
      ],
      "name": "Sphere.002_5"
    },
    {
      "mesh": 5,
      "name": "Object_12"
    },
    {
      "mesh": 6,
      "name": "Object_13"
    },
    {
      "children": [
        15,
        16
      ],
      "matrix": [
        0.298858421805328,
        8.065240213091162e-10,
        0.026146718122666047,
        0.0,
        -0.024569878439050948,
        0.10260604434447566,
        0.2808350545961584,
        0.0,
        -0.008942703286837434,
        -0.28190779843157404,
        0.10221559760596276,
        0.0,
        -0.7456493377685547,
        0.10000000149011612,
        1.054897665977478,
        1.0
      ],
      "name": "Sphere.003_6"
    },
    {
      "mesh": 7,
      "name": "Object_15"
    },
    {
      "mesh": 8,
      "name": "Object_16"
    },
    {
      "children": [
        18
      ],
      "matrix": [
        1.0,
        0.0,
        0.0,
        0.0,
        0.0,
        1.0,
        0.0,
        0.0,
        0.0,
        0.0,
        1.0,
        0.0,
        0.0,
        -1.0,
        0.0,
        1.0
      ],
      "name": "Torus.001_7"
    },
    {
      "mesh": 9,
      "name": "Object_18"
    },
    {
      "children": [
        20
      ],
      "matrix": [
        0.30000001192092896,
        0.0,
        0.0,
        0.0,
        0.0,
        0.30000001192092896,
        0.0,
        0.0,
        0.0,
        0.0,
        0.30000001192092896,
        0.0,
        0.0,
        0.0,
        0.0,
        1.0
      ],
      "name": "Cube_8"
    },
    {
      "mesh": 10,
      "name": "Object_20"
    }
  ],
  "scene": 0,
  "scenes": [
    {
      "name": "Sketchfab_Scene",
      "nodes": [
        0
      ]
    }
  ]
}
