{
  "accessors": [
    {
      "bufferView": 2,
      "componentType": 5126,
      "count": 1948,
      "max": [
        0.9528350234031677,
        0.40287500619888306,
        2.099220037460327
      ],
      "min": [
        -0.9533159732818604,
        -0.287418007850647,
        0.00020900000527035445
      ],
      "type": "VEC3"
    },
    {
      "bufferView": 2,
      "byteOffset": 23376,
      "componentType": 5126,
      "count": 1948,
      "max": [
        0.9999573230743408,
        0.9999926090240479,
        0.9986906051635742
      ],
      "min": [
        -0.999708354473114,
        -1.0,
        -0.9998927116394043
      ],
      "type": "VEC3"
    },
    {
      "bufferView": 1,
      "componentType": 5126,
      "count": 1948,
      "max": [
        0.9932000041007996,
        1.0009000301361084
      ],
      "min": [
        0.0015999999595806003,
        0.0005000000237487257
      ],
      "type": "VEC2"
    },
    {
      "bufferView": 0,
      "componentType": 5125,
      "count": 4203,
      "type": "SCALAR"
    },
    {
      "bufferView": 2,
      "byteOffset": 46752,
      "componentType": 5126,
      "count": 365,
      "max": [
        0.16535499691963196,
        0.09806899726390839,
        1.9142110347747803
      ],
      "min": [
        -0.16583700478076935,
        -0.17534199357032776,
        1.469751000404358
      ],
      "type": "VEC3"
    },
    {
      "bufferView": 2,
      "byteOffset": 51132,
      "componentType": 5126,
      "count": 365,
      "max": [
        0.9975742101669312,
        0.9639570116996765,
        0.975892186164856
      ],
      "min": [
        -0.9975742101669312,
        -0.9999449253082275,
        -0.9384182095527649
      ],
      "type": "VEC3"
    },
    {
      "bufferView": 1,
      "byteOffset": 15584,
      "componentType": 5126,
      "count": 365,
      "max": [
        0.979200005531311,
        -0.009399999864399433
      ],
      "min": [
        0.029200000688433647,
        -0.9944000244140625
      ],
      "type": "VEC2"
    },
    {
      "bufferView": 0,
      "byteOffset": 16812,
      "componentType": 5125,
      "count": 1230,
      "type": "SCALAR"
    }
  ],
  "asset": {
    "extras": {
      "author": "tobytinker (https://sketchfab.com/tobytinker)",
      "license": "CC-BY-4.0 (http://creativecommons.org/licenses/by/4.0/)",
      "source": "https://sketchfab.com/3d-models/wii-toy-story-3-woody-8fb9c5865d4742dba069308b8845d79c",
      "title": "Wii - Toy Story 3 - Woody"
    },
    "generator": "Sketchfab-12.66.0",
    "version": "2.0"
  },
  "bufferViews": [
    {
      "buffer": 0,
      "byteLength": 21732,
      "name": "floatBufferViews",
      "target": 34963
    },
    {
      "buffer": 0,
      "byteLength": 18504,
      "byteOffset": 21732,
      "byteStride": 8,
      "name": "floatBufferViews",
      "target": 34962
    },
    {
      "buffer": 0,
      "byteLength": 55512,
      "byteOffset": 40236,
      "byteStride": 12,
      "name": "floatBufferViews",
      "target": 34962
    }
  ],
  "buffers": [
    {
      "byteLength": 95748,
      "uri": "scene.bin"
    }
  ],
  "images": [
    {
      "uri": "textures/Woody.001_baseColor.png"
    },
    {
      "uri": "textures/Woody_face.001_baseColor.png"
    }
  ],
  "materials": [
    {
      "alphaMode": "BLEND",
      "doubleSided": true,
      "name": "Woody.001",
      "pbrMetallicRoughness": {
        "baseColorTexture": {
          "index": 0
        },
        "metallicFactor": 0.0
      }
    },
    {
      "doubleSided": true,
      "name": "Woody_face.001",
      "pbrMetallicRoughness": {
        "baseColorTexture": {
          "index": 1
        },
        "metallicFactor": 0.0
      }
    }
  ],
  "meshes": [
    {
      "name": "Object_0",
      "primitives": [
        {
          "attributes": {
            "NORMAL": 1,
            "POSITION": 0,
            "TEXCOORD_0": 2
          },
          "indices": 3,
          "material": 0,
          "mode": 4
        }
      ]
    },
    {
      "name": "Object_1",
      "primitives": [
        {
          "attributes": {
            "NORMAL": 5,
            "POSITION": 4,
            "TEXCOORD_0": 6
          },
          "indices": 7,
          "material": 1,
          "mode": 4
        }
      ]
    }
  ],
  "nodes": [
    {
      "children": [
        1
      ],
      "matrix": [
        1.0,
        0.0,
        0.0,
        0.0,
        0.0,
        2.220446049250313e-16,
        -1.0,
        0.0,
        0.0,
        1.0,
        2.220446049250313e-16,
        0.0,
        0.0,
        0.0,
        0.0,
        1.0
      ],
      "name": "Sketchfab_model"
    },
    {
      "children": [
        2,
        3
      ],
      "name": "Woody.obj.cleaner.materialmerger.gles"
    },
    {
      "mesh": 0,
      "name": "Object_2"
    },
    {
      "mesh": 1,
      "name": "Object_3"
    }
  ],
  "samplers": [
    {
      "magFilter": 9729,
      "minFilter": 9987,
      "wrapS": 10497,
      "wrapT": 10497
    }
  ],
  "scene": 0,
  "scenes": [
    {
      "name": "Sketchfab_Scene",
      "nodes": [
        0
      ]
    }
  ],
  "textures": [
    {
      "sampler": 0,
      "source": 0
    },
    {
      "sampler": 0,
      "source": 1
    }
  ]
}
