{
  "accessors": [
    {
      "bufferView": 2,
      "componentType": 5126,
      "count": 65532,
      "max": [
        1.8837709426879883,
        -3.938175916671753,
        1.8265049457550049
      ],
      "min": [
        -0.3657180070877075,
        -6.993925094604492,
        -1.006700038909912
      ],
      "type": "VEC3"
    },
    {
      "bufferView": 2,
      "byteOffset": 786384,
      "componentType": 5126,
      "count": 65532,
      "max": [
        0.9998350739479065,
        0.9999892115592957,
        0.9998964071273804
      ],
      "min": [
        -0.9999891519546509,
        -0.9999771118164063,
        -0.9999980926513672
      ],
      "type": "VEC3"
    },
    {
      "bufferView": 1,
      "componentType": 5126,
      "count": 65532,
      "max": [
        0.9991919994354248,
        1.0007870197296143
      ],
      "min": [
        -0.0010460000485181808,
        0.001964000053703785
      ],
      "type": "VEC2"
    },
    {
      "bufferView": 0,
      "componentType": 5125,
      "count": 146352,
      "type": "SCALAR"
    },
    {
      "bufferView": 2,
      "byteOffset": 1572768,
      "componentType": 5126,
      "count": 65532,
      "max": [
        0.09795299917459488,
        -4.097907066345215,
        1.7605350017547607
      ],
      "min": [
        -2.3075530529022217,
        -6.993925094604492,
        -1.4691100120544434
      ],
      "type": "VEC3"
    },
    {
      "bufferView": 2,
      "byteOffset": 2359152,
      "componentType": 5126,
      "count": 65532,
      "max": [
        0.999886691570282,
        0.9999859929084778,
        0.999941885471344
      ],
      "min": [
        -0.9998965263366699,
        -0.9999955296516418,
        -0.9999805092811584
      ],
      "type": "VEC3"
    },
    {
      "bufferView": 1,
      "byteOffset": 524256,
      "componentType": 5126,
      "count": 65532,
      "max": [
        1.393615961074829,
        1.0010130405426025
      ],
      "min": [
        -0.0015709999715909362,
        0.0027979998849332333
      ],
      "type": "VEC2"
    },
    {
      "bufferView": 0,
      "byteOffset": 585408,
      "componentType": 5125,
      "count": 138324,
      "type": "SCALAR"
    },
    {
      "bufferView": 2,
      "byteOffset": 3145536,
      "componentType": 5126,
      "count": 65532,
      "max": [
        -0.9012290239334106,
        -4.615598201751709,
        0.6996560096740723
      ],
      "min": [
        -2.5121850967407227,
        -6.652853012084961,
        -1.4167510271072388
      ],
      "type": "VEC3"
    },
    {
      "bufferView": 2,
      "byteOffset": 3931920,
      "componentType": 5126,
      "count": 65532,
      "max": [
        0.9999403953552246,
        0.9999971389770508,
        0.9999257326126099
      ],
      "min": [
        -0.9999573230743408,
        -0.9999792575836182,
        -0.9999746084213257
      ],
      "type": "VEC3"
    },
    {
      "bufferView": 1,
      "byteOffset": 1048512,
      "componentType": 5126,
      "count": 65532,
      "max": [
        0.9993699789047241,
        1.0025700330734253
      ],
      "min": [
        -0.0009309999877586961,
        0.004009000025689602
      ],
      "type": "VEC2"
    },
    {
      "bufferView": 0,
      "byteOffset": 1138704,
      "componentType": 5125,
      "count": 124788,
      "type": "SCALAR"
    },
    {
      "bufferView": 2,
      "byteOffset": 4718304,
      "componentType": 5126,
      "count": 59640,
      "max": [
        -0.037025999277830124,
        -4.22707986831665,
        1.7581989765167236
      ],
      "min": [
        -1.3702340126037598,
        -7.028804779052734,
        -1.118016004562378
      ],
      "type": "VEC3"
    },
    {
      "bufferView": 2,
      "byteOffset": 5433984,
      "componentType": 5126,
      "count": 59640,
      "max": [
        0.9998186826705933,
        0.9999386668205261,
        0.9999651908874512
      ],
      "min": [
        -0.9997777938842773,
        -0.9999673962593079,
        -0.9998722672462463
      ],
      "type": "VEC3"
    },
    {
      "bufferView": 1,
      "byteOffset": 1572768,
      "componentType": 5126,
      "count": 59640,
      "max": [
        0.9989650249481201,
        1.0017600059509277
      ],
      "min": [
        -0.00035200000274926424,
        0.0023849999997764826
      ],
      "type": "VEC2"
    },
    {
      "bufferView": 0,
      "byteOffset": 1637856,
      "componentType": 5125,
      "count": 130533,
      "type": "SCALAR"
    }
  ],
  "asset": {
    "extras": {
      "author": "Gabriel Menotti (https://sketchfab.com/menotti)",
      "license": "CC-BY-4.0 (http://creativecommons.org/licenses/by/4.0/)",
      "source": "https://sketchfab.com/3d-models/barbie-6828ace9c78047e69e5a64799ef9f59d",
      "title": "Barbie"
    },
    "generator": "Sketchfab-12.68.0",
    "version": "2.0"
  },
  "bufferViews": [
    {
      "buffer": 0,
      "byteLength": 2159988,
      "name": "floatBufferViews",
      "target": 34963
    },
    {
      "buffer": 0,
      "byteLength": 2049888,
      "byteOffset": 2159988,
      "byteStride": 8,
      "name": "floatBufferViews",
      "target": 34962
    },
    {
      "buffer": 0,
      "byteLength": 6149664,
      "byteOffset": 4209876,
      "byteStride": 12,
      "name": "floatBufferViews",
      "target": 34962
    }
  ],
  "buffers": [
    {
      "byteLength": 10359540,
      "uri": "scene.bin"
    }
  ],
  "extensionsUsed": [
    "KHR_materials_unlit"
  ],
  "images": [
    {
      "uri": "textures/barbie_emissive.png"
    }
  ],
  "materials": [
    {
      "doubleSided": true,
      "emissiveFactor": [
        1.0,
        1.0,
        1.0
      ],
      "emissiveTexture": {
        "index": 0
      },
      "extensions": {
        "KHR_materials_unlit": {}
      },
      "name": "barbie",
      "pbrMetallicRoughness": {
        "metallicFactor": 0.0
      }
    }
  ],
  "meshes": [
    {
      "name": "Object_0",
      "primitives": [
        {
          "attributes": {
            "NORMAL": 1,
            "POSITION": 0,
            "TEXCOORD_0": 2
          },
          "indices": 3,
          "material": 0,
          "mode": 4
        }
      ]
    },
    {
      "name": "Object_1",
      "primitives": [
        {
          "attributes": {
            "NORMAL": 5,
            "POSITION": 4,
            "TEXCOORD_0": 6
          },
          "indices": 7,
          "material": 0,
          "mode": 4
        }
      ]
    },
    {
      "name": "Object_2",
      "primitives": [
        {
          "attributes": {
            "NORMAL": 9,
            "POSITION": 8,
            "TEXCOORD_0": 10
          },
          "indices": 11,
          "material": 0,
          "mode": 4
        }
      ]
    },
    {
      "name": "Object_3",
      "primitives": [
        {
          "attributes": {
            "NORMAL": 13,
            "POSITION": 12,
            "TEXCOORD_0": 14
          },
          "indices": 15,
          "material": 0,
          "mode": 4
        }
      ]
    }
  ],
  "nodes": [
    {
      "children": [
        1
      ],
      "matrix": [
        0.06676396146612662,
        -0.025483941397026026,
        -0.03347098590875653,
        0.0,
        0.04133840046548087,
        0.051386902774066094,
        0.04333229419499719,
        0.0,
        0.007802232246815588,
        -0.05419520115166955,
        0.05682578550120042,
        0.0,
        2.8064935207366943,
        3.7707388401031476,
        8.232614517211914,
        1.0
      ],
      "name": "Sketchfab_model"
    },
    {
      "children": [
        2,
        3,
        4,
        5
      ],
      "name": "barbie.obj.cleaner.materialmerger.gles"
    },
    {
      "mesh": 0,
      "name": "Object_2"
    },
    {
      "mesh": 1,
      "name": "Object_3"
    },
    {
      "mesh": 2,
      "name": "Object_4"
    },
    {
      "mesh": 3,
      "name": "Object_5"
    }
  ],
  "samplers": [
    {
      "magFilter": 9729,
      "minFilter": 9987,
      "wrapS": 10497,
      "wrapT": 10497
    }
  ],
  "scene": 0,
  "scenes": [
    {
      "name": "Sketchfab_Scene",
      "nodes": [
        0
      ]
    }
  ],
  "textures": [
    {
      "sampler": 0,
      "source": 0
    }
  ]
}
