{
  "accessors": [
    {
      "bufferView": 2,
      "componentType": 5126,
      "count": 22251,
      "max": [
        3.3679399490356445,
        3.5336599349975586,
        3.419879913330078
      ],
      "min": [
        -3.3440101146698,
        -6.2212300300598145,
        -15.44906997680664
      ],
      "type": "VEC3"
    },
    {
      "bufferView": 2,
      "byteOffset": 267012,
      "componentType": 5126,
      "count": 22251,
      "max": [
        0.9999845623970032,
        0.9999999403953552,
        0.9998161196708679
      ],
      "min": [
        -0.9999062418937683,
        -0.9999940991401672,
        -0.9997839331626892
      ],
      "type": "VEC3"
    },
    {
      "bufferView": 3,
      "componentType": 5126,
      "count": 22251,
      "max": [
        0.9999935626983643,
        0.9999853372573853,
        0.9997996091842651,
        1.0
      ],
      "min": [
        -0.9996795058250427,
        -0.9997937083244324,
        -0.9997027516365051,
        -1.0
      ],
      "type": "VEC4"
    },
    {
      "bufferView": 1,
      "componentType": 5126,
      "count": 22251,
      "max": [
        0.9962599873542786,
        0.9918500185012817
      ],
      "min": [
        0.004029999952763319,
        0.006930000148713589
      ],
      "type": "VEC2"
    },
    {
      "bufferView": 1,
      "byteOffset": 178008,
      "componentType": 5126,
      "count": 22251,
      "max": [
        0.9962599873542786,
        0.9918500185012817
      ],
      "min": [
        0.004029999952763319,
        0.006930000148713589
      ],
      "type": "VEC2"
    },
    {
      "bufferView": 0,
      "componentType": 5125,
      "count": 129078,
      "type": "SCALAR"
    },
    {
      "bufferView": 2,
      "byteOffset": 534024,
      "componentType": 5126,
      "count": 4,
      "max": [
        1.0,
        1.0,
        0.0
      ],
      "min": [
        -1.0,
        -1.0,
        0.0
      ],
      "type": "VEC3"
    },
    {
      "bufferView": 2,
      "byteOffset": 534072,
      "componentType": 5126,
      "count": 4,
      "max": [
        0.0,
        0.0,
        1.0
      ],
      "min": [
        0.0,
        0.0,
        1.0
      ],
      "type": "VEC3"
    },
    {
      "bufferView": 1,
      "byteOffset": 356016,
      "componentType": 5126,
      "count": 4,
      "max": [
        1.0,
        1.0
      ],
      "min": [
        0.0,
        0.0
      ],
      "type": "VEC2"
    },
    {
      "bufferView": 0,
      "byteOffset": 516312,
      "componentType": 5125,
      "count": 6,
      "type": "SCALAR"
    }
  ],
  "asset": {
    "extras": {
      "author": "JuanG3D (https://sketchfab.com/juang3d)",
      "license": "CC-BY-4.0 (http://creativecommons.org/licenses/by/4.0/)",
      "source": "https://sketchfab.com/3d-models/dino-rex-3dsm2-3d8e41cbaa034102ac0f23fb1da0361c",
      "title": "Dino Rex #3DSM2"
    },
    "generator": "Sketchfab-12.65.0",
    "version": "2.0"
  },
  "bufferViews": [
    {
      "buffer": 0,
      "byteLength": 516336,
      "name": "floatBufferViews",
      "target": 34963
    },
    {
      "buffer": 0,
      "byteLength": 356048,
      "byteOffset": 516336,
      "byteStride": 8,
      "name": "floatBufferViews",
      "target": 34962
    },
    {
      "buffer": 0,
      "byteLength": 534120,
      "byteOffset": 872384,
      "byteStride": 12,
      "name": "floatBufferViews",
      "target": 34962
    },
    {
      "buffer": 0,
      "byteLength": 356016,
      "byteOffset": 1406504,
      "byteStride": 16,
      "name": "floatBufferViews",
      "target": 34962
    }
  ],
  "buffers": [
    {
      "byteLength": 1762520,
      "uri": "scene.bin"
    }
  ],
  "images": [
    {
      "uri": "textures/Floor_baseColor.png"
    },
    {
      "uri": "textures/DinoMat_baseColor.jpeg"
    },
    {
      "uri": "textures/DinoMat_normal.png"
    }
  ],
  "materials": [
    {
      "alphaMode": "BLEND",
      "name": "Floor",
      "pbrMetallicRoughness": {
        "baseColorFactor": [
          0.0,
          0.0,
          0.0,
          0.86
        ],
        "baseColorTexture": {
          "index": 0
        },
        "metallicFactor": 0.0,
        "roughnessFactor": 0.6
      }
    },
    {
      "doubleSided": true,
      "name": "DinoMat",
      "normalTexture": {
        "index": 2
      },
      "pbrMetallicRoughness": {
        "baseColorTexture": {
          "index": 1
        },
        "metallicFactor": 0.0,
        "roughnessFactor": 0.6
      }
    }
  ],
  "meshes": [
    {
      "name": "Final_RexLOWPOLY_0",
      "primitives": [
        {
          "attributes": {
            "NORMAL": 1,
            "POSITION": 0,
            "TANGENT": 2,
            "TEXCOORD_0": 3,
            "TEXCOORD_1": 4
          },
          "indices": 5,
          "material": 1,
          "mode": 4
        }
      ]
    },
    {
      "name": "Plane_0",
      "primitives": [
        {
          "attributes": {
            "NORMAL": 7,
            "POSITION": 6,
            "TEXCOORD_0": 8
          },
          "indices": 9,
          "material": 0,
          "mode": 4
        }
      ]
    }
  ],
  "nodes": [
    {
      "children": [
        1
      ],
      "matrix": [
        1.0,
        0.0,
        0.0,
        0.0,
        0.0,
        2.220446049250313e-16,
        -1.0,
        0.0,
        0.0,
        1.0,
        2.220446049250313e-16,
        0.0,
        0.0,
        0.0,
        0.0,
        1.0
      ],
      "name": "Sketchfab_model"
    },
    {
      "children": [
        2,
        4
      ],
      "name": "Root"
    },
    {
      "children": [
        3
      ],
      "matrix": [
        1.0,
        0.0,
        0.0,
        0.0,
        -0.0,
        0.15445000000000003,
        0.988,
        0.0,
        -0.0,
        -0.988,
        0.15445000000000003,
        0.0,
        0.0,
        0.0,
        0.0,
        1.0
      ],
      "name": "Final_RexLOWPOLY"
    },
    {
      "mesh": 0,
      "name": "Final_RexLOWPOLY_0"
    },
    {
      "children": [
        5
      ],
      "matrix": [
        12.667580000000001,
        0.0,
        0.0,
        0.0,
        0.0,
        12.667580000000001,
        0.0,
        0.0,
        0.0,
        0.0,
        12.667580000000001,
        0.0,
        -0.0,
        4.69112,
        -6.28509,
        1.0
      ],
      "name": "Plane"
    },
    {
      "mesh": 1,
      "name": "Plane_0"
    }
  ],
  "samplers": [
    {
      "magFilter": 9729,
      "minFilter": 9987,
      "wrapS": 10497,
      "wrapT": 10497
    }
  ],
  "scene": 0,
  "scenes": [
    {
      "name": "Sketchfab_Scene",
      "nodes": [
        0
      ]
    }
  ],
  "textures": [
    {
      "sampler": 0,
      "source": 0
    },
    {
      "sampler": 0,
      "source": 1
    },
    {
      "sampler": 0,
      "source": 2
    }
  ]
}
